<?xml version="1.0" encoding="UTF-8" standalone="no"?><svg xmlns="http://www.w3.org/2000/svg" xmlns:xlink="http://www.w3.org/1999/xlink" clip-rule="evenodd" stroke-miterlimit="4.00" viewBox="0 0 1024 768"><desc>SVG generated by Keynote</desc><defs></defs><g transform="matrix(1.00, 0.00, -0.00, -1.00, 0.0, 768.0)"><path d="M 0.0 768.0 L 1024.0 768.0 L 1024.0 0.0 L 0.0 0.0 Z M 0.0 768.0 " fill="#212121"></path><image xlink:href="4F2EAC8F093BBDB65CB770766A78A351.png" width="203.00" height="203.00" transform="matrix(1.00, 0.00, -0.00, -1.00, 299.0, 761.0)"></image><image xlink:href="2D5A2365A2066E8BCC7F93FEE7F62C5B.png" width="166.00" height="173.00" transform="matrix(1.00, 0.00, -0.00, -1.00, 539.0, 746.0)"></image><image xlink:href="EB2EA4A7260523509DFDB6DA2616E0D6.png" width="170.00" height="170.00" transform="matrix(1.00, 0.00, -0.00, -1.00, 771.0, 745.0)"></image><path d="M 435.5 440.6 C 455.1 421.1 455.1 389.4 435.5 369.9 C 416.0 350.4 384.4 350.4 364.8 369.9 C 345.3 389.4 345.3 421.1 364.8 440.6 C 384.4 460.1 416.0 460.1 435.5 440.6 Z M 435.5 440.6 " fill="#E42731"></path><text xml:space="preserve" font-family="AvenirNext-Medium" font-size="28.0" fill="#838686" transform="matrix(1.00, 0.00, -0.00, -1.00, 152.0, 396.0)">c</text><text xml:space="preserve" font-family="AvenirNext-Medium" font-size="28.0" fill="#838686" transform="matrix(1.00, 0.00, -0.00, -1.00, 165.8, 396.0)">l</text><text xml:space="preserve" font-family="AvenirNext-Medium" font-size="28.0" fill="#838686" transform="matrix(1.00, 0.00, -0.00, -1.00, 173.1, 396.0)">a</text><text xml:space="preserve" font-family="AvenirNext-Medium" font-size="28.0" fill="#838686" transform="matrix(1.00, 0.00, -0.00, -1.00, 188.3, 396.0)">s</text><text xml:space="preserve" font-family="AvenirNext-Medium" font-size="28.0" fill="#838686" transform="matrix(1.00, 0.00, -0.00, -1.00, 200.7, 396.0)">s</text><path d="M 657.2 440.6 C 676.7 421.1 676.7 389.4 657.2 369.9 C 637.6 350.4 606.0 350.4 586.5 369.9 C 566.9 389.4 566.9 421.1 586.5 440.6 C 606.0 460.1 637.6 460.1 657.2 440.6 Z M 657.2 440.6 " fill="#E42731"></path><path d="M 891.6 440.6 C 911.2 421.1 911.2 389.4 891.6 369.9 C 872.1 350.4 840.5 350.4 820.9 369.9 C 801.4 389.4 801.4 421.1 820.9 440.6 C 840.5 460.1 872.1 460.1 891.6 440.6 Z M 891.6 440.6 " fill="#8ABE5D"></path><path d="M 435.5 548.5 C 455.1 529.0 455.1 497.3 435.5 477.8 C 416.0 458.2 384.4 458.2 364.8 477.8 C 345.3 497.3 345.3 529.0 364.8 548.5 C 384.4 568.0 416.0 568.0 435.5 548.5 Z M 435.5 548.5 " fill="#8ABE5D"></path><text xml:space="preserve" font-family="AvenirNext-Medium" font-size="28.0" fill="#838686" transform="matrix(1.00, 0.00, -0.00, -1.00, 84.0, 504.0)">a</text><text xml:space="preserve" font-family="AvenirNext-Medium" font-size="28.0" fill="#838686" transform="matrix(1.00, 0.00, -0.00, -1.00, 99.2, 504.0)">r</text><text xml:space="preserve" font-family="AvenirNext-Medium" font-size="28.0" fill="#838686" transform="matrix(1.00, 0.00, -0.00, -1.00, 109.3, 504.0)">r</text><text xml:space="preserve" font-family="AvenirNext-Medium" font-size="28.0" fill="#838686" transform="matrix(1.00, 0.00, -0.00, -1.00, 118.9, 504.0)">o</text><text xml:space="preserve" font-family="AvenirNext-Medium" font-size="28.0" fill="#838686" transform="matrix(1.00, 0.00, -0.00, -1.00, 136.0, 504.0)">w</text><text xml:space="preserve" font-family="AvenirNext-Medium" font-size="28.0" fill="#838686" transform="matrix(1.00, 0.00, -0.00, -1.00, 157.7, 504.0)"> </text><text xml:space="preserve" font-family="AvenirNext-Medium" font-size="28.0" fill="#838686" transform="matrix(1.00, 0.00, -0.00, -1.00, 164.7, 504.0)">f</text><text xml:space="preserve" font-family="AvenirNext-Medium" font-size="28.0" fill="#838686" transform="matrix(1.00, 0.00, -0.00, -1.00, 173.3, 504.0)">u</text><text xml:space="preserve" font-family="AvenirNext-Medium" font-size="28.0" fill="#838686" transform="matrix(1.00, 0.00, -0.00, -1.00, 189.6, 504.0)">n</text><text xml:space="preserve" font-family="AvenirNext-Medium" font-size="28.0" fill="#838686" transform="matrix(1.00, 0.00, -0.00, -1.00, 205.9, 504.0)">c</text><text xml:space="preserve" font-family="AvenirNext-Medium" font-size="28.0" fill="#838686" transform="matrix(1.00, 0.00, -0.00, -1.00, 219.8, 504.0)">t</text><text xml:space="preserve" font-family="AvenirNext-Medium" font-size="28.0" fill="#838686" transform="matrix(1.00, 0.00, -0.00, -1.00, 229.0, 504.0)">i</text><text xml:space="preserve" font-family="AvenirNext-Medium" font-size="28.0" fill="#838686" transform="matrix(1.00, 0.00, -0.00, -1.00, 236.2, 504.0)">o</text><text xml:space="preserve" font-family="AvenirNext-Medium" font-size="28.0" fill="#838686" transform="matrix(1.00, 0.00, -0.00, -1.00, 253.3, 504.0)">n</text><text xml:space="preserve" font-family="AvenirNext-Medium" font-size="28.0" fill="#838686" transform="matrix(1.00, 0.00, -0.00, -1.00, 269.6, 504.0)">s</text><path d="M 657.2 548.5 C 676.7 529.0 676.7 497.3 657.2 477.8 C 637.6 458.2 606.0 458.2 586.5 477.8 C 566.9 497.3 566.9 529.0 586.5 548.5 C 606.0 568.0 637.6 568.0 657.2 548.5 Z M 657.2 548.5 " fill="#8ABE5D"></path><path d="M 891.6 548.5 C 911.2 529.0 911.2 497.3 891.6 477.8 C 872.1 458.2 840.5 458.2 820.9 477.8 C 801.4 497.3 801.4 529.0 820.9 548.5 C 840.5 568.0 872.1 568.0 891.6 548.5 Z M 891.6 548.5 " fill="#8ABE5D"></path><path d="M 435.5 224.8 C 455.1 205.3 455.1 173.6 435.5 154.1 C 416.0 134.6 384.4 134.6 364.8 154.1 C 345.3 173.6 345.3 205.3 364.8 224.8 C 384.4 244.3 416.0 244.3 435.5 224.8 Z M 435.5 224.8 " fill="#E42731"></path><text xml:space="preserve" font-family="AvenirNext-Medium" font-size="28.0" fill="#838686" transform="matrix(1.00, 0.00, -0.00, -1.00, 61.0, 181.0)">d</text><text xml:space="preserve" font-family="AvenirNext-Medium" font-size="28.0" fill="#838686" transform="matrix(1.00, 0.00, -0.00, -1.00, 78.8, 181.0)">e</text><text xml:space="preserve" font-family="AvenirNext-Medium" font-size="28.0" fill="#838686" transform="matrix(1.00, 0.00, -0.00, -1.00, 94.8, 181.0)">f</text><text xml:space="preserve" font-family="AvenirNext-Medium" font-size="28.0" fill="#838686" transform="matrix(1.00, 0.00, -0.00, -1.00, 103.5, 181.0)">a</text><text xml:space="preserve" font-family="AvenirNext-Medium" font-size="28.0" fill="#838686" transform="matrix(1.00, 0.00, -0.00, -1.00, 118.7, 181.0)">u</text><text xml:space="preserve" font-family="AvenirNext-Medium" font-size="28.0" fill="#838686" transform="matrix(1.00, 0.00, -0.00, -1.00, 135.0, 181.0)">l</text><text xml:space="preserve" font-family="AvenirNext-Medium" font-size="28.0" fill="#838686" transform="matrix(1.00, 0.00, -0.00, -1.00, 142.3, 181.0)">t</text><text xml:space="preserve" font-family="AvenirNext-Medium" font-size="28.0" fill="#838686" transform="matrix(1.00, 0.00, -0.00, -1.00, 151.5, 181.0)"> </text><text xml:space="preserve" font-family="AvenirNext-Medium" font-size="28.0" fill="#838686" transform="matrix(1.00, 0.00, -0.00, -1.00, 158.5, 181.0)">p</text><text xml:space="preserve" font-family="AvenirNext-Medium" font-size="28.0" fill="#838686" transform="matrix(1.00, 0.00, -0.00, -1.00, 176.2, 181.0)">a</text><text xml:space="preserve" font-family="AvenirNext-Medium" font-size="28.0" fill="#838686" transform="matrix(1.00, 0.00, -0.00, -1.00, 191.4, 181.0)">r</text><text xml:space="preserve" font-family="AvenirNext-Medium" font-size="28.0" fill="#838686" transform="matrix(1.00, 0.00, -0.00, -1.00, 201.2, 181.0)">a</text><text xml:space="preserve" font-family="AvenirNext-Medium" font-size="28.0" fill="#838686" transform="matrix(1.00, 0.00, -0.00, -1.00, 216.3, 181.0)">m</text><text xml:space="preserve" font-family="AvenirNext-Medium" font-size="28.0" fill="#838686" transform="matrix(1.00, 0.00, -0.00, -1.00, 241.2, 181.0)">e</text><text xml:space="preserve" font-family="AvenirNext-Medium" font-size="28.0" fill="#838686" transform="matrix(1.00, 0.00, -0.00, -1.00, 257.2, 181.0)">t</text><text xml:space="preserve" font-family="AvenirNext-Medium" font-size="28.0" fill="#838686" transform="matrix(1.00, 0.00, -0.00, -1.00, 266.4, 181.0)">e</text><text xml:space="preserve" font-family="AvenirNext-Medium" font-size="28.0" fill="#838686" transform="matrix(1.00, 0.00, -0.00, -1.00, 282.5, 181.0)">r</text><text xml:space="preserve" font-family="AvenirNext-Medium" font-size="28.0" fill="#838686" transform="matrix(1.00, 0.00, -0.00, -1.00, 292.6, 181.0)">s</text><path d="M 657.2 224.8 C 676.7 205.3 676.7 173.6 657.2 154.1 C 637.6 134.6 606.0 134.6 586.5 154.1 C 566.9 173.6 566.9 205.3 586.5 224.8 C 606.0 244.3 637.6 244.3 657.2 224.8 Z M 657.2 224.8 " fill="#8ABE5D"></path><path d="M 891.6 224.8 C 911.2 205.3 911.2 173.6 891.6 154.1 C 872.1 134.6 840.5 134.6 820.9 154.1 C 801.4 173.6 801.4 205.3 820.9 224.8 C 840.5 244.3 872.1 244.3 891.6 224.8 Z M 891.6 224.8 " fill="#E42731"></path><path d="M 435.5 332.7 C 455.1 313.2 455.1 281.5 435.5 262.0 C 416.0 242.5 384.4 242.5 364.8 262.0 C 345.3 281.5 345.3 313.2 364.8 332.7 C 384.4 352.2 416.0 352.2 435.5 332.7 Z M 435.5 332.7 " fill="#8ABE5D"></path><text xml:space="preserve" font-family="AvenirNext-Medium" font-size="28.0" fill="#838686" transform="matrix(1.00, 0.00, -0.00, -1.00, 113.0, 289.0)">g</text><text xml:space="preserve" font-family="AvenirNext-Medium" font-size="28.0" fill="#838686" transform="matrix(1.00, 0.00, -0.00, -1.00, 130.7, 289.0)">e</text><text xml:space="preserve" font-family="AvenirNext-Medium" font-size="28.0" fill="#838686" transform="matrix(1.00, 0.00, -0.00, -1.00, 146.7, 289.0)">n</text><text xml:space="preserve" font-family="AvenirNext-Medium" font-size="28.0" fill="#838686" transform="matrix(1.00, 0.00, -0.00, -1.00, 163.0, 289.0)">e</text><text xml:space="preserve" font-family="AvenirNext-Medium" font-size="28.0" fill="#838686" transform="matrix(1.00, 0.00, -0.00, -1.00, 179.1, 289.0)">r</text><text xml:space="preserve" font-family="AvenirNext-Medium" font-size="28.0" fill="#838686" transform="matrix(1.00, 0.00, -0.00, -1.00, 188.9, 289.0)">a</text><text xml:space="preserve" font-family="AvenirNext-Medium" font-size="28.0" fill="#838686" transform="matrix(1.00, 0.00, -0.00, -1.00, 203.7, 289.0)">t</text><text xml:space="preserve" font-family="AvenirNext-Medium" font-size="28.0" fill="#838686" transform="matrix(1.00, 0.00, -0.00, -1.00, 213.0, 289.0)">o</text><text xml:space="preserve" font-family="AvenirNext-Medium" font-size="28.0" fill="#838686" transform="matrix(1.00, 0.00, -0.00, -1.00, 230.0, 289.0)">r</text><text xml:space="preserve" font-family="AvenirNext-Medium" font-size="28.0" fill="#838686" transform="matrix(1.00, 0.00, -0.00, -1.00, 240.2, 289.0)">s</text><path d="M 657.2 332.7 C 676.7 313.2 676.7 281.5 657.2 262.0 C 637.6 242.5 606.0 242.5 586.5 262.0 C 566.9 281.5 566.9 313.2 586.5 332.7 C 606.0 352.2 637.6 352.2 657.2 332.7 Z M 657.2 332.7 " fill="#8ABE5D"></path><path d="M 891.6 332.7 C 911.2 313.2 911.2 281.5 891.6 262.0 C 872.1 242.5 840.5 242.5 820.9 262.0 C 801.4 281.5 801.4 313.2 820.9 332.7 C 840.5 352.2 872.1 352.2 891.6 332.7 Z M 891.6 332.7 " fill="#8ABE5D"></path><path d="M 435.5 116.9 C 455.1 97.4 455.1 65.7 435.5 46.2 C 416.0 26.7 384.4 26.7 364.8 46.2 C 345.3 65.7 345.3 97.4 364.8 116.9 C 384.4 136.5 416.0 136.5 435.5 116.9 Z M 435.5 116.9 " fill="#8ABE5D"></path><text xml:space="preserve" font-family="AvenirNext-Medium" font-size="28.0" fill="#838686" transform="matrix(1.00, 0.00, -0.00, -1.00, 79.0, 73.0)">t</text><text xml:space="preserve" font-family="AvenirNext-Medium" font-size="28.0" fill="#838686" transform="matrix(1.00, 0.00, -0.00, -1.00, 88.2, 73.0)">e</text><text xml:space="preserve" font-family="AvenirNext-Medium" font-size="28.0" fill="#838686" transform="matrix(1.00, 0.00, -0.00, -1.00, 104.3, 73.0)">m</text><text xml:space="preserve" font-family="AvenirNext-Medium" font-size="28.0" fill="#838686" transform="matrix(1.00, 0.00, -0.00, -1.00, 129.1, 73.0)">p</text><text xml:space="preserve" font-family="AvenirNext-Medium" font-size="28.0" fill="#838686" transform="matrix(1.00, 0.00, -0.00, -1.00, 146.8, 73.0)">l</text><text xml:space="preserve" font-family="AvenirNext-Medium" font-size="28.0" fill="#838686" transform="matrix(1.00, 0.00, -0.00, -1.00, 154.1, 73.0)">a</text><text xml:space="preserve" font-family="AvenirNext-Medium" font-size="28.0" fill="#838686" transform="matrix(1.00, 0.00, -0.00, -1.00, 169.0, 73.0)">t</text><text xml:space="preserve" font-family="AvenirNext-Medium" font-size="28.0" fill="#838686" transform="matrix(1.00, 0.00, -0.00, -1.00, 178.2, 73.0)">e</text><text xml:space="preserve" font-family="AvenirNext-Medium" font-size="28.0" fill="#838686" transform="matrix(1.00, 0.00, -0.00, -1.00, 194.3, 73.0)"> </text><text xml:space="preserve" font-family="AvenirNext-Medium" font-size="28.0" fill="#838686" transform="matrix(1.00, 0.00, -0.00, -1.00, 201.3, 73.0)">s</text><text xml:space="preserve" font-family="AvenirNext-Medium" font-size="28.0" fill="#838686" transform="matrix(1.00, 0.00, -0.00, -1.00, 213.7, 73.0)">t</text><text xml:space="preserve" font-family="AvenirNext-Medium" font-size="28.0" fill="#838686" transform="matrix(1.00, 0.00, -0.00, -1.00, 222.9, 73.0)">r</text><text xml:space="preserve" font-family="AvenirNext-Medium" font-size="28.0" fill="#838686" transform="matrix(1.00, 0.00, -0.00, -1.00, 233.1, 73.0)">i</text><text xml:space="preserve" font-family="AvenirNext-Medium" font-size="28.0" fill="#838686" transform="matrix(1.00, 0.00, -0.00, -1.00, 240.3, 73.0)">n</text><text xml:space="preserve" font-family="AvenirNext-Medium" font-size="28.0" fill="#838686" transform="matrix(1.00, 0.00, -0.00, -1.00, 256.6, 73.0)">g</text><text xml:space="preserve" font-family="AvenirNext-Medium" font-size="28.0" fill="#838686" transform="matrix(1.00, 0.00, -0.00, -1.00, 274.3, 73.0)">s</text><path d="M 657.2 116.9 C 676.7 97.4 676.7 65.7 657.2 46.2 C 637.6 26.7 606.0 26.7 586.5 46.2 C 566.9 65.7 566.9 97.4 586.5 116.9 C 606.0 136.5 637.6 136.5 657.2 116.9 Z M 657.2 116.9 " fill="#8ABE5D"></path><path d="M 891.6 116.9 C 911.2 97.4 911.2 65.7 891.6 46.2 C 872.1 26.7 840.5 26.7 820.9 46.2 C 801.4 65.7 801.4 97.4 820.9 116.9 C 840.5 136.5 872.1 136.5 891.6 116.9 Z M 891.6 116.9 " fill="#8ABE5D"></path></g></svg>